<svg width="172" height="172" viewBox="0 0 172 172" fill="none" xmlns="http://www.w3.org/2000/svg">
<mask id="mask0_141_330" style="mask-type:alpha" maskUnits="userSpaceOnUse" x="0" y="0" width="172" height="172">
<circle cx="86" cy="86" r="84.8138" fill="#C4C4C4" stroke="#F8BB54" stroke-width="2.37241"/>
</mask>
<g mask="url(#mask0_141_330)">
<path d="M-49.9791 36.0677C-49.9791 36.0677 -9.9325 28.6494 0.400035 2.68567C10.2817 -22.2035 50.9873 -28.8936 50.9873 -28.8936" stroke="#8C87DB" stroke-width="2.66667" stroke-miterlimit="10"/>
<path d="M-49.9791 48.5467C-49.9791 48.5467 -0.848179 39.9847 11.8073 8.64799C23.8733 -21.2675 73.767 -28.8936 73.767 -28.8936" stroke="#8C87DB" stroke-width="2.66667" stroke-miterlimit="10"/>
<path d="M-49.9791 61.0607C-49.9791 61.0607 8.20133 51.32 23.1799 14.6796C37.4649 -20.3661 96.547 -28.8936 96.547 -28.8936" stroke="#8C87DB" stroke-width="2.66667" stroke-miterlimit="10"/>
<path d="M-49.9791 73.5399C-49.9791 73.5399 17.2855 62.6553 34.5871 20.642C51.0566 -19.4301 119.327 -28.8936 119.327 -28.8936" stroke="#8C87DB" stroke-width="2.66667" stroke-miterlimit="10"/>
<path d="M-49.9791 86.0192C-49.9791 86.0192 26.3697 73.9907 45.9944 26.6388C64.6481 -18.4942 142.072 -28.8936 142.072 -28.8936" stroke="#8C87DB" stroke-width="2.66667" stroke-miterlimit="10"/>
<path d="M-49.9791 98.5329C-49.9791 98.5329 35.4193 85.3605 57.367 32.6357C78.2744 -17.593 164.852 -28.8936 164.852 -28.8936" stroke="#8C87DB" stroke-width="2.66667" stroke-miterlimit="10"/>
<path d="M-49.9791 111.012C-49.9791 111.012 44.5035 96.661 68.7743 38.6328C91.8662 -16.6571 187.632 -28.8936 187.632 -28.8936" stroke="#8C87DB" stroke-width="2.66667" stroke-miterlimit="10"/>
<path d="M-49.9791 123.491C-49.9791 123.491 53.5877 107.996 80.1467 44.5952C105.458 -15.7211 210.412 -28.8936 210.412 -28.8936" stroke="#8C87DB" stroke-width="2.66667" stroke-miterlimit="10"/>
<path d="M-49.9791 136.005C-49.9791 136.005 62.6371 119.366 91.554 50.6266C119.049 -14.8199 233.157 -28.8936 233.157 -28.8936" stroke="#8C87DB" stroke-width="2.66667" stroke-miterlimit="10"/>
<path d="M-49.9791 148.484C-49.9791 148.484 71.7215 130.702 102.927 56.6237C132.641 -13.884 255.937 -28.8936 255.937 -28.8936" stroke="#8C87DB" stroke-width="2.66667" stroke-miterlimit="10"/>
<path d="M-49.9791 160.998C-49.9791 160.998 80.8056 142.037 114.334 62.6205C146.233 -12.948 278.716 -28.8936 278.716 -28.8936" stroke="#8C87DB" stroke-width="2.66667" stroke-miterlimit="10"/>
<path d="M-49.9791 173.478C-49.9791 173.478 89.8551 153.372 125.707 68.6177C159.824 -12.0466 301.496 -28.8936 301.496 -28.8936" stroke="#8C87DB" stroke-width="2.66667" stroke-miterlimit="10"/>
<path d="M-49.9791 185.956C-49.9791 185.956 98.9393 164.708 137.114 74.5797C173.416 -11.1107 324.275 -28.8936 324.275 -28.8936" stroke="#8C87DB" stroke-width="2.66667" stroke-miterlimit="10"/>
<path d="M-49.9791 198.47C-49.9791 198.47 108.024 176.043 148.521 80.6114C187.007 -10.1747 347.021 -28.8936 347.021 -28.8936" stroke="#8C87DB" stroke-width="2.66667" stroke-miterlimit="10"/>
<path d="M-49.9791 210.95C-49.9791 210.95 117.073 187.378 159.894 86.5737C200.599 -9.27354 369.801 -28.8936 369.801 -28.8936" stroke="#8C87DB" stroke-width="2.66667" stroke-miterlimit="10"/>
<path d="M-49.9791 223.43C-49.9791 223.43 126.157 198.714 171.301 92.5706C214.191 -8.33758 392.581 -28.8936 392.581 -28.8936" stroke="#8C87DB" stroke-width="2.66667" stroke-miterlimit="10"/>
<path d="M-49.9791 235.944C-49.9791 235.944 135.241 210.083 182.673 98.5677C227.782 -7.40163 415.361 -28.8936 415.361 -28.8936" stroke="#8C87DB" stroke-width="2.66667" stroke-miterlimit="10"/>
<path d="M-49.9791 248.422C-49.9791 248.422 144.291 221.384 194.081 104.565C241.374 -6.50047 438.107 -28.8936 438.107 -28.8936" stroke="#8C87DB" stroke-width="2.66667" stroke-miterlimit="10"/>
</g>
</svg>
