<svg width="128" height="182" viewBox="0 0 128 182" fill="none" xmlns="http://www.w3.org/2000/svg">
<path d="M26.3858 104.99C26.3858 102.863 28.095 101.138 30.2064 101.138H50.611C52.7277 101.138 54.4369 102.863 54.4369 104.99C54.439 105.495 54.3417 105.995 54.1505 106.461C53.9594 106.928 53.6782 107.353 53.3229 107.711C52.9676 108.069 52.5453 108.354 52.08 108.549C51.6147 108.744 51.1155 108.846 50.611 108.848H30.2064C29.1884 108.842 28.2142 108.433 27.4979 107.709C26.7815 106.986 26.3816 106.008 26.3858 104.99Z" fill="#CA4B40"/>
<path fill-rule="evenodd" clip-rule="evenodd" d="M112.62 107.054C112.288 107.036 111.935 107.029 111.561 107.033H96.8874C84.87 107.033 74.583 116.219 74.583 128.199C74.583 140.18 84.87 149.366 96.8874 149.366H111.561C111.935 149.369 112.288 149.362 112.62 149.345C117.504 149.048 121.822 145.339 122.187 140.153C122.208 139.814 122.208 139.449 122.208 139.111V117.288C122.208 116.949 122.208 116.584 122.187 116.245C121.822 111.06 117.504 107.355 112.62 107.054ZM95.5962 133.845C98.6866 133.845 101.195 131.316 101.195 128.199C101.195 125.077 98.6866 122.553 95.5962 122.553C92.5059 122.553 89.987 125.082 89.987 128.199C89.987 131.321 92.5006 133.845 95.5962 133.845Z" fill="#CA4B40"/>
<path opacity="0.5" d="M112.366 107.043C112.366 100.793 112.133 94.0886 108.143 89.2891C107.752 88.82 107.34 88.368 106.91 87.9344C102.946 83.9763 97.9245 82.2194 91.7227 81.3834C85.6902 80.5737 77.9908 80.5737 68.2648 80.5737H57.0888C47.3627 80.5737 39.658 80.5737 33.6255 81.3834C27.4237 82.2194 22.4019 83.9763 18.4384 87.9344C14.4803 91.8979 12.7234 96.9197 11.8873 103.122C11.083 109.154 11.083 116.853 11.083 126.579V127.172C11.083 136.898 11.083 144.603 11.8926 150.63C12.7287 156.832 14.4855 161.854 18.4437 165.817C22.4072 169.775 27.429 171.532 33.6308 172.368C39.6633 173.178 47.3627 173.178 57.0888 173.178H68.2648C77.9908 173.178 85.6955 173.178 91.7227 172.368C97.9245 171.532 102.946 169.775 106.91 165.817C107.986 164.731 108.914 163.566 109.693 162.325C112.074 158.515 112.36 153.847 112.36 149.36L111.566 149.365H96.8874C84.87 149.365 74.583 140.179 74.583 128.199C74.583 116.218 84.87 107.032 96.8874 107.032H111.561C111.84 107.032 112.112 107.036 112.366 107.043Z" fill="#CA4B40"/>
<path d="M53.9494 67.7268L42.8316 75.2409L33.6611 81.3793C39.683 80.5749 47.3771 80.5749 57.0873 80.5749H68.2633C77.9894 80.5749 85.6941 80.5749 91.7213 81.3846C92.9349 81.5433 94.1025 81.7444 95.2244 81.9878L85.1649 75.2833L73.9836 67.7268C71.0153 65.754 67.5306 64.7017 63.9665 64.7017C60.4024 64.7017 56.9177 65.754 53.9494 67.7268Z" fill="#CA4B40"/>
<g clip-path="url(#clip0_435_311)">
<path d="M64.7555 53.3594L44.085 22.3533H55.2215V0.442707H74.2901V22.3533H85.4267L64.7555 53.3594Z" fill="#E5A59F"/>
</g>
<defs>
<clipPath id="clip0_435_311">
<rect width="52.9167" height="52.9167" fill="white" transform="matrix(1 0 0 -1 38.2979 53.3594)"/>
</clipPath>
</defs>
</svg>
