<svg width="119" height="133" viewBox="0 0 119 133" fill="none" xmlns="http://www.w3.org/2000/svg">
<g opacity="0.2">
<path d="M41.652 95.8494C23.5759 95.8494 8.92695 89.2467 8.92695 81.1044C8.92695 72.9621 23.5759 66.3594 41.652 66.3594L74.377 81.1044C74.377 89.2533 59.7281 95.8494 41.652 95.8494Z" fill="#CA4B40"/>
<path fill-rule="evenodd" clip-rule="evenodd" d="M28.5917 81.1044C32.1544 80.2579 35.7793 79.7781 39.4207 79.671L45.6087 82.4581C44.3275 82.5378 43.0086 82.5776 41.652 82.5776C36.6956 82.5776 32.251 82.0003 28.5917 81.1044ZM65.2675 91.3171C68.5638 89.7709 71.1164 87.8996 72.6693 85.8225C73.776 84.3427 74.377 82.7567 74.377 81.111L41.652 66.3594C23.5759 66.3594 8.92695 72.9621 8.92695 81.1044C8.92695 89.2533 23.5759 95.8494 41.652 95.8494C50.934 95.8494 59.3116 94.1108 65.2675 91.3171Z" fill="#CA4B40"/>
<path d="M41.652 119.446C23.5759 119.446 8.92695 112.844 8.92695 104.701V79.6309H74.377V104.701C74.377 112.844 59.7281 119.446 41.652 119.446Z" fill="#CA4B40"/>
<path fill-rule="evenodd" clip-rule="evenodd" d="M20.827 101.689C21.5178 102.117 22.2333 102.494 22.969 102.817C27.1518 104.708 33.7563 106.175 41.652 106.175C49.5476 106.175 56.1521 104.708 60.335 102.823C61.0707 102.499 61.7863 102.119 62.477 101.689V92.9027H20.827V101.689ZM8.92695 79.6309V104.701C8.92695 112.844 23.5759 119.446 41.652 119.446C59.7281 119.446 74.377 112.844 74.377 104.701V79.6309H8.92695Z" fill="#CA4B40"/>
<path d="M38.6769 41.289C38.6769 49.4379 53.3259 56.034 71.402 56.034C89.4781 56.034 104.127 49.4379 104.127 41.289C104.127 33.1401 89.4781 26.5439 71.402 26.5439C53.3259 26.5439 38.6769 33.1467 38.6769 41.289Z" fill="#CA4B40"/>
<path fill-rule="evenodd" clip-rule="evenodd" d="M58.3417 41.289C62.636 40.2829 67.014 39.789 71.402 39.8158C76.3583 39.8158 80.803 40.3931 84.4622 41.289C80.803 42.1848 76.3583 42.7621 71.402 42.7621C66.4456 42.7621 62.001 42.1848 58.3417 41.289ZM71.402 56.034C53.3259 56.034 38.6769 49.4379 38.6769 41.289C38.6769 33.1401 53.3259 26.5439 71.402 26.5439C89.4781 26.5439 104.127 33.1467 104.127 41.289C104.127 49.4379 89.4781 56.034 71.402 56.034Z" fill="#CA4B40"/>
<path d="M71.402 79.6314C53.3259 79.6314 38.6769 73.0286 38.6769 64.8864V43.1338H104.127V64.8864C104.127 73.0286 89.4781 79.6314 71.402 79.6314Z" fill="#CA4B40"/>
<path fill-rule="evenodd" clip-rule="evenodd" d="M50.577 61.8736C51.2678 62.3022 51.9833 62.679 52.7189 63.0018C56.9018 64.8996 63.5063 66.3595 71.402 66.3595C79.2976 66.3595 85.9021 64.893 90.085 63.0084C90.8207 62.6835 91.5363 62.3044 92.227 61.8736V56.4056H50.577V61.8736ZM38.6769 43.1338V64.8864C38.6769 73.0286 53.3259 79.6314 71.402 79.6314C89.4781 79.6314 104.127 73.0286 104.127 64.8864V43.1338H38.6769Z" fill="#CA4B40"/>
</g>
<path fill-rule="evenodd" clip-rule="evenodd" d="M25.5739 67.1223C31.0598 64.6471 38.8543 63.0412 47.6008 63.0412V56.4053C38.2771 56.4053 29.7032 58.1041 23.3486 60.9642C20.1772 62.3975 17.4105 64.1759 15.3934 66.3326C13.3704 68.4893 11.9008 71.2432 11.9008 74.4683C11.9008 77.7 13.3645 80.4472 15.3934 82.6105C17.4164 84.7606 20.1772 86.5456 23.3486 87.9724C29.7032 90.8391 38.2831 92.5313 47.6008 92.5313C56.9244 92.5313 65.4984 90.8391 71.853 87.9724C75.0243 86.5456 77.7911 84.7606 79.8081 82.6105C81.8311 80.4472 83.3008 77.7 83.3008 74.4683H77.3508C77.3508 75.311 76.9819 76.4391 75.6967 77.8128C74.4115 79.1864 72.3766 80.58 69.6277 81.8209C64.1358 84.2961 56.3532 85.8953 47.6008 85.8953C38.8543 85.8953 31.0598 84.2961 25.5739 81.8209C22.825 80.58 20.796 79.1864 19.5049 77.8128C18.2137 76.4391 17.8508 75.311 17.8508 74.4683C17.8508 73.6255 18.2197 72.4974 19.5049 71.1304C20.796 69.7501 22.825 68.3566 25.5739 67.1223Z" fill="#CA4B40"/>
<path fill-rule="evenodd" clip-rule="evenodd" d="M80.3258 74.103C79.5368 74.103 78.7801 74.4526 78.2221 75.0748C77.6642 75.6971 77.3508 76.541 77.3508 77.421V98.0587C77.3508 98.9081 76.9819 100.036 75.6967 101.403C74.4055 102.783 72.3766 104.177 69.6277 105.418C64.1358 107.887 56.3532 109.492 47.6008 109.492C38.8543 109.492 31.0598 107.887 25.5739 105.418C22.825 104.177 20.796 102.783 19.5049 101.403C18.2197 100.036 17.8508 98.9081 17.8508 98.0654V77.421C17.8508 76.541 17.5374 75.6971 16.9794 75.0748C16.4215 74.4526 15.6648 74.103 14.8758 74.103C14.0868 74.103 13.3301 74.4526 12.7721 75.0748C12.2142 75.6971 11.9008 76.541 11.9008 77.421V98.0587C11.9008 101.297 13.3645 104.044 15.3934 106.201C17.4224 108.358 20.1772 110.136 23.3486 111.569C29.7032 114.43 38.2831 116.128 47.6008 116.128C56.9244 116.128 65.4984 114.43 71.853 111.569C75.0243 110.143 77.7911 108.358 79.8081 106.201C81.8311 104.044 83.3008 101.29 83.3008 98.0654V77.421C83.3008 76.541 82.9873 75.6971 82.4294 75.0748C81.8715 74.4526 81.1148 74.103 80.3258 74.103Z" fill="#CA4B40"/>
<path fill-rule="evenodd" clip-rule="evenodd" d="M67.2358 110.993V86.2671H61.2858V110.993H67.2358ZM41.0558 109.493V89.585H35.1058V109.493H41.0558ZM105.447 31.315C106.732 32.682 107.101 33.8101 107.101 34.6528C107.101 35.4956 106.732 36.6237 105.447 37.9973C104.161 39.371 102.127 40.7645 99.3777 42.0054C93.8858 44.4806 86.1032 46.0799 77.3508 46.0799C68.6043 46.0799 60.8098 44.4806 55.3239 42.0054C52.575 40.7645 50.546 39.371 49.2549 37.9973C47.9637 36.6237 47.6008 35.4956 47.6008 34.6528C47.6008 33.8101 47.9697 32.682 49.2549 31.315C50.546 29.9347 52.575 28.5411 55.3239 27.3002C60.8157 24.8317 68.6043 23.2258 77.3508 23.2258C86.0973 23.2258 93.8918 24.8317 99.3777 27.3002C102.127 28.5411 104.156 29.9347 105.447 31.315ZM101.603 21.1487C95.2484 18.2886 86.6685 16.5898 77.3508 16.5898C68.0271 16.5898 59.4532 18.2886 53.0986 21.1487C49.9272 22.5821 47.1605 24.3605 45.1434 26.5172C43.1204 28.6739 41.6508 31.4278 41.6508 34.6528C41.6508 37.8845 43.1145 40.6318 45.1434 42.7951C47.1664 44.9452 49.9272 46.7302 53.0986 48.1569C59.4532 51.0237 68.0331 52.7158 77.3508 52.7158C86.6744 52.7158 95.2484 51.0237 101.603 48.1569C104.774 46.7302 107.541 44.9452 109.558 42.7951C111.581 40.6318 113.051 37.8845 113.051 34.6528C113.051 31.4278 111.587 28.6805 109.558 26.5172C107.529 24.3539 104.774 22.5821 101.603 21.1487Z" fill="#CA4B40"/>
<path fill-rule="evenodd" clip-rule="evenodd" d="M110.076 34.2881C109.287 34.2881 108.53 34.6377 107.972 35.2599C107.414 35.8821 107.101 36.7261 107.101 37.606V58.2438C107.101 59.0932 106.732 60.2213 105.447 61.5883C104.156 62.9686 102.127 64.3621 99.3777 65.603C93.8858 68.0716 86.1032 69.6775 77.3508 69.6775C68.6043 69.6775 60.8098 68.0716 55.3239 65.603C52.575 64.3621 50.546 62.9686 49.2549 61.5883C47.9697 60.2213 47.6008 59.0932 47.6008 58.2504V37.606C47.6008 36.7261 47.2874 35.8821 46.7294 35.2599C46.1715 34.6377 45.4148 34.2881 44.6258 34.2881C43.8368 34.2881 43.0801 34.6377 42.5221 35.2599C41.9642 35.8821 41.6508 36.7261 41.6508 37.606V58.2438C41.6508 61.4821 43.1145 64.2294 45.1434 66.3861C47.1724 68.5427 49.9272 70.3278 53.0986 71.7545C59.4532 74.6146 68.0331 76.3134 77.3508 76.3134C86.6744 76.3134 95.2484 74.6146 101.603 71.7545C104.774 70.3212 107.541 68.5427 109.558 66.3861C111.581 64.236 113.051 61.4755 113.051 58.2504V37.606C113.051 36.7261 112.737 35.8821 112.179 35.2599C111.622 34.6377 110.865 34.2881 110.076 34.2881Z" fill="#CA4B40"/>
<path fill-rule="evenodd" clip-rule="evenodd" d="M96.9854 69.6761V47.2002H91.0354V69.6761H96.9854ZM70.8053 69.6761V49.7683H64.8553V69.6761H70.8053Z" fill="#CA4B40"/>
</svg>
