<svg width="112" height="139" viewBox="0 0 112 139" fill="none" xmlns="http://www.w3.org/2000/svg">
<rect width="111.271" height="139" rx="15" fill="#FFEAE8"/>
<path d="M55.6352 121.271C86.3617 121.271 111.27 96.3618 111.27 65.6353C111.27 34.9088 86.3617 10 55.6352 10C24.9087 10 0 34.9088 0 65.6353C0 96.3618 24.9087 121.271 55.6352 121.271Z" fill="#FFEAE8"/>
<path d="M82.6753 89.7481C78.2912 87.4378 73.7151 85.512 68.9982 83.9923L68.3963 77.3389L44.004 74.7109L40.904 83.215L32.1503 86.5001C31.8369 86.6189 31.5385 86.7742 31.2614 86.9627H31.252C29.8188 87.0841 28.4386 87.5612 27.2363 88.3508C26.4209 88.8713 25.6959 89.5214 25.0898 90.2755C26.2742 91.1731 27.5043 92.0059 28.7722 92.8018L28.8281 92.8295C29.189 93.0516 29.5593 93.2737 29.9289 93.4866C30.5955 93.8844 31.2803 94.2638 31.9651 94.6247L32.4001 94.8468C33.3992 95.3651 34.4173 95.8555 35.4629 96.3089C35.6757 96.4014 35.9074 96.4939 36.1201 96.5865C36.1383 96.5958 36.1477 96.5958 36.1658 96.6051C36.6567 96.8086 37.1469 97.0029 37.6465 97.188C39.288 97.8149 40.9623 98.3524 42.662 98.7981C46.9999 99.9542 51.4701 100.539 55.9594 100.538C57.5976 100.538 59.2169 100.464 60.8181 100.306C64.4758 99.9688 68.0869 99.2398 71.5892 98.1319C71.5979 98.1319 71.608 98.1226 71.6167 98.1226C73.8293 97.4178 75.9906 96.5614 78.0853 95.5594C78.094 95.5501 78.1129 95.5501 78.1224 95.5409C78.5944 95.3188 79.0475 95.0782 79.51 94.8468L79.7322 94.7357C80.1026 94.5415 80.4729 94.3472 80.8432 94.1436C81.7684 93.6346 82.6753 93.0979 83.5721 92.5242C83.8219 92.3761 84.063 92.2188 84.3128 92.0522C84.6643 91.8209 85.0157 91.5803 85.3585 91.3305C84.498 90.7752 83.6005 90.2477 82.6753 89.7481Z" fill="#CA4B40"/>
<path d="M55.2415 70.504C64.9439 70.504 72.8092 62.6387 72.8092 52.9364C72.8092 43.234 64.9439 35.3687 55.2415 35.3687C45.5392 35.3687 37.6738 43.234 37.6738 52.9364C37.6738 62.6387 45.5392 70.504 55.2415 70.504Z" fill="#A0616A"/>
<path d="M43.4472 44.3794C45.2657 46.5315 48.3434 47.1388 51.1824 47.3878C56.948 47.8934 65.332 47.0732 70.9666 45.7723C71.3687 49.6701 70.2723 53.8728 72.5681 57.0791C73.6442 53.1974 74.27 49.2047 74.433 45.1798C74.6044 43.4529 74.379 41.7098 73.7739 40.0833C73.4503 39.2683 72.9046 38.5603 72.1988 38.0399C71.4929 37.5195 70.6553 37.2076 69.781 37.1396C71.0898 36.1467 72.6228 35.4912 74.2449 35.2311L68.6668 32.4279L70.0992 30.9572L60.0004 30.3393L62.9254 28.4811C58.523 27.8761 54.0692 27.7355 49.6375 28.0616C47.5795 28.2132 45.4279 28.5029 43.7605 29.6952C42.093 30.8876 41.1295 33.2575 42.1647 35.0081C40.8687 35.2209 39.6485 35.761 38.6197 36.5773C37.5909 37.3937 36.7876 38.4591 36.2858 39.6728C35.6512 41.6019 35.498 43.6569 35.8395 45.6587C36.22 48.8706 36.9664 52.0285 38.0643 55.0708L43.4472 44.3794Z" fill="#2F2E41"/>
</svg>
