<svg width="61" height="61" viewBox="0 0 61 61" fill="none" xmlns="http://www.w3.org/2000/svg">
<path d="M54.0458 13.8551L31.4206 6.31332C31.0335 6.1843 30.6151 6.1843 30.228 6.31332L7.6028 13.8551C7.22737 13.9802 6.90084 14.2203 6.66947 14.5414C6.43809 14.8624 6.3136 15.2481 6.31363 15.6439V34.4982C6.31363 34.9983 6.51227 35.4779 6.86586 35.8315C7.21945 36.185 7.69902 36.3837 8.19907 36.3837C8.69912 36.3837 9.17868 36.185 9.53227 35.8315C9.88586 35.4779 10.0845 34.9983 10.0845 34.4982V18.2599L18.001 20.8972C15.8977 24.2952 15.2288 28.3891 16.1413 32.2798C17.0538 36.1706 19.473 39.5402 22.8678 41.6488C18.6255 43.3127 14.9584 46.3223 12.2763 50.4373C12.1368 50.6446 12.04 50.8775 11.9913 51.1226C11.9426 51.3677 11.9432 51.62 11.9929 51.8649C12.0426 52.1098 12.1405 52.3423 12.2809 52.549C12.4213 52.7557 12.6013 52.9325 12.8106 53.069C13.0199 53.2055 13.2542 53.299 13.5 53.3442C13.7457 53.3893 13.998 53.3852 14.2422 53.332C14.4863 53.2787 14.7174 53.1775 14.9221 53.0342C15.1268 52.8909 15.3009 52.7083 15.4344 52.4971C18.9861 47.0482 24.5953 43.9254 30.8243 43.9254C37.0533 43.9254 42.6625 47.0482 46.2142 52.4971C46.4907 52.9081 46.9179 53.1938 47.4034 53.2923C47.8889 53.3909 48.3936 53.2944 48.8085 53.0238C49.2235 52.7532 49.5152 52.3301 49.6207 51.8461C49.7262 51.3621 49.637 50.856 49.3723 50.4373C46.6903 46.3223 43.0089 43.3127 38.7809 41.6488C42.1724 39.5403 44.5893 36.1728 45.5016 32.2849C46.4139 28.397 45.7472 24.306 43.6476 20.909L54.0458 17.4445C54.4213 17.3194 54.7479 17.0793 54.9794 16.7583C55.2109 16.4372 55.3354 16.0514 55.3354 15.6557C55.3354 15.2599 55.2109 14.8741 54.9794 14.5531C54.7479 14.232 54.4213 13.9919 54.0458 13.8669V13.8551ZM42.1369 28.8419C42.1374 30.6304 41.7139 32.3935 40.9011 33.9866C40.0882 35.5797 38.9093 36.9573 37.4609 38.0065C36.0125 39.0558 34.336 39.7466 32.5689 40.0224C30.8019 40.2982 28.9946 40.1512 27.2954 39.5933C25.5961 39.0354 24.0534 38.0825 22.7937 36.8129C21.5341 35.5433 20.5934 33.9932 20.0488 32.2896C19.5043 30.5861 19.3714 28.7777 19.6611 27.0128C19.9508 25.248 20.6547 23.5769 21.7153 22.1369L30.228 24.965C30.6151 25.094 31.0335 25.094 31.4206 24.965L39.9333 22.1369C41.3656 24.0789 42.1379 26.4288 42.1369 28.8419ZM30.8243 21.1988L14.1618 15.6439L30.8243 10.0889L47.4869 15.6439L30.8243 21.1988Z" fill="#CA4B40"/>
</svg>
