<svg width="59" height="59" viewBox="0 0 59 59" fill="none" xmlns="http://www.w3.org/2000/svg">
<rect x="0.458984" y="0.638672" width="58.3544" height="58.3544" rx="16.2096" fill="#8C87DB"/>
<path fill-rule="evenodd" clip-rule="evenodd" d="M29.4951 28.4718C31.7223 28.4718 33.5279 26.6663 33.5279 24.439C33.5279 22.2118 31.7223 20.4062 29.4951 20.4062C27.2678 20.4062 25.4623 22.2118 25.4623 24.439C25.4623 26.6663 27.2678 28.4718 29.4951 28.4718ZM29.4951 39.2261C33.9496 39.2261 37.5607 37.4205 37.5607 35.1933C37.5607 32.966 33.9496 31.1605 29.4951 31.1605C25.0406 31.1605 21.4295 32.966 21.4295 35.1933C21.4295 37.4205 25.0406 39.2261 29.4951 39.2261ZM21.9426 31.1861C18.6227 31.3908 16.0525 32.806 16.0525 34.5213C16.0525 35.9354 17.7993 37.1455 20.273 37.6416C19.7202 36.8931 19.4131 36.0648 19.4131 35.1934C19.4131 33.6564 20.3686 32.2532 21.9426 31.1861ZM39.5771 35.1934C39.5771 36.0648 39.2701 36.8931 38.7173 37.6416C41.1909 37.1455 42.9378 35.9354 42.9378 34.5213C42.9378 32.806 40.3676 31.3908 37.0477 31.1861C38.6217 32.2532 39.5771 33.6564 39.5771 35.1934ZM34.4934 27.8474C35.1565 26.8769 35.5443 25.7033 35.5443 24.4392C35.5443 24.0197 35.5016 23.6102 35.4203 23.2147C35.6718 23.1368 35.9392 23.0949 36.2164 23.0949C37.7012 23.0949 38.9049 24.2986 38.9049 25.7834C38.9049 27.2683 37.7012 28.472 36.2164 28.472C35.5608 28.472 34.96 28.2373 34.4934 27.8474ZM22.7738 23.0949C23.051 23.0949 23.3183 23.1368 23.5699 23.2147C23.4886 23.6102 23.4459 24.0197 23.4459 24.4392C23.4459 25.7033 23.8337 26.8769 24.4968 27.8474C24.0302 28.2373 23.4294 28.472 22.7738 28.472C21.289 28.472 20.0853 27.2683 20.0853 25.7834C20.0853 24.2986 21.289 23.0949 22.7738 23.0949Z" fill="white"/>
</svg>
