<svg width="59" height="60" viewBox="0 0 59 60" fill="none" xmlns="http://www.w3.org/2000/svg">
<rect x="0.458984" y="0.969727" width="58.3544" height="58.3544" rx="16.2096" fill="#8C87DB"/>
<path fill-rule="evenodd" clip-rule="evenodd" d="M38.9049 36.868C41.1322 36.868 42.9377 35.0625 42.9377 32.8353L42.9377 20.7369C42.9377 18.5096 41.1322 16.7041 38.905 16.7041H20.0853C17.858 16.7041 16.0525 18.5096 16.0525 20.7369V32.8352C16.0525 35.0625 17.858 36.868 20.0853 36.868H22.1358L19.2207 41.7265C18.9343 42.204 19.0891 42.8233 19.5666 43.1098C20.044 43.3962 20.6633 43.2414 20.9498 42.764L24.4873 36.868L28.4869 36.868V39.5567C28.4869 40.1135 28.9383 40.5649 29.4951 40.5649C30.0519 40.5649 30.5033 40.1135 30.5033 39.5567V36.868H34.5029L38.0404 42.764C38.3269 43.2414 38.9462 43.3962 39.4237 43.1098C39.9011 42.8233 40.0559 42.204 39.7695 41.7265L36.8544 36.868H38.9049ZM21.7656 23.4254C21.7656 22.8686 22.217 22.4172 22.7738 22.4172H36.2164C36.7732 22.4172 37.2246 22.8686 37.2246 23.4254C37.2246 23.9822 36.7732 24.4336 36.2164 24.4336H22.7738C22.217 24.4336 21.7656 23.9822 21.7656 23.4254ZM22.7738 29.1385C22.217 29.1385 21.7656 29.5899 21.7656 30.1467C21.7656 30.7035 22.217 31.1549 22.7738 31.1549H29.4951C30.0519 31.1549 30.5033 30.7035 30.5033 30.1467C30.5033 29.5899 30.0519 29.1385 29.4951 29.1385H22.7738Z" fill="white"/>
</svg>
