<svg width="59" height="60" viewBox="0 0 59 60" fill="none" xmlns="http://www.w3.org/2000/svg">
<rect x="0.458984" y="0.720215" width="58.3544" height="58.3544" rx="16.2096" fill="#8C87DB"/>
<path fill-rule="evenodd" clip-rule="evenodd" d="M36.2164 23.3654C36.2164 23.0865 36.1994 22.8116 36.1664 22.5417C35.7603 19.2181 32.9283 16.644 29.4951 16.644C26.0618 16.644 23.2298 19.2181 22.8237 22.5417C22.7907 22.8116 22.7737 23.0865 22.7737 23.3654C22.7737 27.0774 29.4951 32.7752 29.4951 32.7752C29.4951 32.7752 36.2164 27.0774 36.2164 23.3654ZM31.5114 23.3654C31.5114 24.479 30.6087 25.3817 29.4951 25.3817C28.3814 25.3817 27.4787 24.479 27.4787 23.3654C27.4787 22.2517 28.3814 21.349 29.4951 21.349C30.6087 21.349 31.5114 22.2517 31.5114 23.3654ZM20.8388 22.1689C20.833 22.2115 20.8275 22.2542 20.8222 22.297C20.7794 22.6479 20.7574 23.0044 20.7574 23.3652C20.7574 24.8401 21.3998 26.2738 22.0924 27.4346C22.8127 28.642 23.7434 29.8084 24.628 30.8025C25.5196 31.8045 26.4048 32.6767 27.064 33.2962L28.4869 34.5647V43.1499C25.9313 41.4573 22.4307 40.6819 19.8095 40.3893C18.4813 40.2411 17.3967 39.1452 17.3967 37.7936V24.3333C17.3967 22.9817 18.4813 21.8862 19.8095 22.0344C20.1399 22.0713 20.4842 22.1158 20.8388 22.1689ZM30.5033 43.1499V34.5647L31.9262 33.2962C32.5853 32.6767 33.4706 31.8045 34.3621 30.8025C35.2468 29.8084 36.1775 28.642 36.8978 27.4346C37.5904 26.2738 38.2328 24.8401 38.2328 23.3652C38.2328 23.0044 38.2108 22.6479 38.1679 22.297C38.1627 22.2542 38.1572 22.2115 38.1513 22.1689C38.506 22.1158 38.8503 22.0713 39.1806 22.0344C40.5089 21.8862 41.5934 22.9817 41.5934 24.3333V37.7936C41.5934 39.1452 40.5089 40.2411 39.1806 40.3893C36.5594 40.6819 33.0588 41.4573 30.5033 43.1499Z" fill="white"/>
</svg>
