<svg width="59" height="59" viewBox="0 0 59 59" fill="none" xmlns="http://www.w3.org/2000/svg">
<rect x="0.458984" y="0.304199" width="58.3544" height="58.3544" rx="16.2096" fill="#8C87DB"/>
<path fill-rule="evenodd" clip-rule="evenodd" d="M40.569 27.484V28.8104C40.569 30.4588 39.2327 31.7951 37.5842 31.7951C35.9358 31.7951 34.5995 30.4588 34.5995 28.8104V27.484L36.6751 28.4065C37.2539 28.6637 37.9146 28.6637 38.4934 28.4065L40.569 27.484ZM32.7341 26.6549V29.9299C32.7341 30.239 32.4835 30.4896 32.1744 30.4896C31.8654 30.4896 31.6148 30.239 31.6148 29.9299V26.1567C31.6216 26.1602 31.6286 26.1636 31.6357 26.1667L32.7341 26.6549Z" fill="white"/>
<path d="M43.5327 26.0362L38.4933 23.7965C37.9145 23.5392 37.2538 23.5392 36.675 23.7965L31.6356 26.0362C31.3402 26.1675 31.3402 26.5868 31.6356 26.7181L36.675 28.9578C37.2538 29.215 37.9145 29.215 38.4933 28.9578L43.5327 26.7181C43.8281 26.5868 43.8281 26.1675 43.5327 26.0362Z" fill="white"/>
<path fill-rule="evenodd" clip-rule="evenodd" d="M35.2979 38.3158H42.0613C42.8856 38.3158 43.5537 37.6477 43.5537 36.8235C43.5537 35.2064 42.0935 33.8156 40.0004 33.2001C39.7506 33.1266 39.4832 33.2056 39.3001 33.3907L38.1148 34.5893C37.8227 34.8846 37.3457 34.8846 37.0537 34.5893L35.8684 33.3907C35.6852 33.2056 35.4179 33.1266 35.1681 33.2001C34.4348 33.4157 33.7792 33.7265 33.2368 34.1089C34.5288 35.2913 35.2925 36.7445 35.2979 38.3158Z" fill="white"/>
<path fill-rule="evenodd" clip-rule="evenodd" d="M29.2017 24.3823V27.7329C29.2017 29.5147 27.7572 30.9591 25.9754 30.9591H23.3213C21.5395 30.9591 20.095 29.5147 20.095 27.7329V24.3822L23.2614 25.7895C24.1444 26.182 25.1523 26.182 26.0353 25.7895L29.2017 24.3823ZM17.2492 23.1174V28.1135C17.2492 28.585 16.867 28.9672 16.3955 28.9672C15.924 28.9672 15.5417 28.585 15.5417 28.1135V22.3574C15.5521 22.3628 15.5628 22.3679 15.5737 22.3727L17.2492 23.1174Z" fill="white"/>
<path d="M33.7232 21.3327L26.0354 17.9159C25.1524 17.5235 24.1445 17.5235 23.2615 17.9159L15.5737 21.3327C15.1231 21.533 15.1231 22.1726 15.5737 22.3729L23.2615 25.7897C24.1445 26.1821 25.1524 26.1821 26.0354 25.7897L33.7232 22.3729C34.1738 22.1726 34.1738 21.533 33.7232 21.3327Z" fill="white"/>
<path d="M22.0307 32.5526L23.839 34.3811C24.2845 34.8316 25.0122 34.8316 25.4578 34.3811L27.266 32.5526C27.5454 32.2701 27.9532 32.1497 28.3343 32.2618C31.5275 33.2008 33.755 35.3224 33.755 37.7894C33.755 39.0467 32.7357 40.066 31.4783 40.066H17.8184C16.561 40.066 15.5418 39.0467 15.5418 37.7894C15.5418 35.3224 17.7693 33.2008 20.9625 32.2618C21.3436 32.1497 21.7514 32.2701 22.0307 32.5526Z" fill="white"/>
</svg>
