<svg width="64" height="64" viewBox="0 0 64 64" fill="none" xmlns="http://www.w3.org/2000/svg">
<rect x="0.898682" y="0.728516" width="62.423" height="62.423" rx="17.3397" fill="#FFEAE8"/>
<g clip-path="url(#clip0_269_2553)">
<path d="M31.8615 47.8694C31.8615 47.8694 21.0822 33.8101 21.0822 27.8506C21.0822 26.4351 21.361 25.0334 21.9027 23.7256C22.4444 22.4178 23.2384 21.2294 24.2394 20.2285C25.2403 19.2275 26.4286 18.4335 27.7364 17.8918C29.0442 17.3501 30.4459 17.0713 31.8615 17.0713C33.2771 17.0713 34.6788 17.3501 35.9866 17.8918C37.2944 18.4335 38.4827 19.2275 39.4837 20.2285C40.4846 21.2294 41.2786 22.4178 41.8203 23.7256C42.362 25.0334 42.6409 26.4351 42.6409 27.8506C42.6409 33.8101 31.8615 47.8694 31.8615 47.8694ZM31.8615 30.9305C32.6783 30.9305 33.4617 30.606 34.0393 30.0284C34.6168 29.4508 34.9413 28.6675 34.9413 27.8506C34.9413 27.0338 34.6168 26.2505 34.0393 25.6729C33.4617 25.0953 32.6783 24.7708 31.8615 24.7708C31.0447 24.7708 30.2613 25.0953 29.6837 25.6729C29.1062 26.2505 28.7817 27.0338 28.7817 27.8506C28.7817 28.6675 29.1062 29.4508 29.6837 30.0284C30.2613 30.606 31.0447 30.9305 31.8615 30.9305Z" fill="#CA4B40"/>
</g>
<defs>
<clipPath id="clip0_269_2553">
<rect width="30.7981" height="30.7981" fill="white" transform="translate(16.4625 17.0718)"/>
</clipPath>
</defs>
</svg>
