<svg width="224" height="192" viewBox="0 0 224 192" fill="none" xmlns="http://www.w3.org/2000/svg">
<rect y="125.999" width="224" height="66" rx="22.245" fill="#FFEAE8"/>
<rect x="22" y="178.986" width="1" height="13" fill="#46413E"/>
<rect x="38" y="184.993" width="1" height="7" fill="#A9A9A9"/>
<rect x="70" y="184.993" width="1" height="7" fill="#A9A9A9"/>
<rect x="102" y="184.993" width="1" height="7" fill="#A9A9A9"/>
<rect x="134" y="184.993" width="1" height="7" fill="#A9A9A9"/>
<rect x="166" y="184.993" width="1" height="7" fill="#A9A9A9"/>
<rect x="198" y="184.993" width="1" height="7" fill="#A9A9A9"/>
<rect x="54" y="178.986" width="1" height="13" fill="#46413E"/>
<rect x="86" y="178.986" width="1" height="13" fill="#46413E"/>
<rect x="118" y="178.986" width="1" height="13" fill="#46413E"/>
<rect x="150" y="178.986" width="1" height="13" fill="#46413E"/>
<rect x="182" y="178.986" width="1" height="13" fill="#46413E"/>
<path d="M47.6079 168.881C46.469 168.881 45.4408 168.62 44.5233 168.098C43.6217 167.56 42.902 166.832 42.3642 165.915C41.8422 164.997 41.5812 163.969 41.5812 162.83C41.5812 162.482 41.6919 162.198 41.9133 161.976C42.1348 161.739 42.4195 161.62 42.7675 161.62C43.1155 161.62 43.4082 161.739 43.6454 161.976C43.8827 162.198 44.0013 162.482 44.0013 162.83C44.0013 163.511 44.1595 164.127 44.4759 164.681C44.7922 165.235 45.2193 165.67 45.7572 165.986C46.3108 166.302 46.9277 166.461 47.6079 166.461C48.3039 166.461 48.9208 166.302 49.4586 165.986C50.0122 165.67 50.4472 165.235 50.7636 164.681C51.08 164.127 51.2382 163.511 51.2382 162.83C51.2382 162.134 51.08 161.517 50.7636 160.98C50.4472 160.426 50.0122 159.991 49.4586 159.675C48.9208 159.358 48.3039 159.2 47.6079 159.2H43.6454C43.2974 159.2 43.0127 159.089 42.7912 158.868C42.5698 158.631 42.4591 158.338 42.4591 157.99V151.584C42.4591 151.236 42.5698 150.943 42.7912 150.706C43.0127 150.468 43.2974 150.35 43.6454 150.35H51.5703C51.9025 150.35 52.1872 150.476 52.4245 150.729C52.6618 150.967 52.7804 151.251 52.7804 151.584C52.7804 151.9 52.6618 152.177 52.4245 152.414C52.2031 152.651 51.9183 152.77 51.5703 152.77H44.8555V156.78H47.6079C48.7626 156.78 49.7908 157.049 50.6924 157.587C51.6099 158.109 52.3296 158.828 52.8516 159.746C53.3894 160.647 53.6583 161.676 53.6583 162.83C53.6583 163.969 53.3894 164.997 52.8516 165.915C52.3296 166.832 51.6099 167.56 50.6924 168.098C49.7908 168.62 48.7626 168.881 47.6079 168.881Z" fill="#CA4B40"/>
<path d="M111.608 168.881C110.469 168.881 109.441 168.62 108.523 168.098C107.622 167.56 106.902 166.832 106.364 165.915C105.842 164.997 105.581 163.969 105.581 162.83C105.581 162.482 105.692 162.198 105.913 161.976C106.135 161.739 106.42 161.62 106.768 161.62C107.116 161.62 107.408 161.739 107.645 161.976C107.883 162.198 108.001 162.482 108.001 162.83C108.001 163.511 108.16 164.127 108.476 164.681C108.792 165.235 109.219 165.67 109.757 165.986C110.311 166.302 110.928 166.461 111.608 166.461C112.304 166.461 112.921 166.302 113.459 165.986C114.012 165.67 114.447 165.235 114.764 164.681C115.08 164.127 115.238 163.511 115.238 162.83C115.238 162.134 115.08 161.517 114.764 160.98C114.447 160.426 114.012 159.991 113.459 159.675C112.921 159.358 112.304 159.2 111.608 159.2H107.645C107.297 159.2 107.013 159.089 106.791 158.868C106.57 158.631 106.459 158.338 106.459 157.99V151.584C106.459 151.236 106.57 150.943 106.791 150.706C107.013 150.468 107.297 150.35 107.645 150.35H115.57C115.903 150.35 116.187 150.476 116.425 150.729C116.662 150.967 116.78 151.251 116.78 151.584C116.78 151.9 116.662 152.177 116.425 152.414C116.203 152.651 115.918 152.77 115.57 152.77H108.856V156.78H111.608C112.763 156.78 113.791 157.049 114.692 157.587C115.61 158.109 116.33 158.828 116.852 159.746C117.389 160.647 117.658 161.676 117.658 162.83C117.658 163.969 117.389 164.997 116.852 165.915C116.33 166.832 115.61 167.56 114.692 168.098C113.791 168.62 112.763 168.881 111.608 168.881Z" fill="#CA4B40"/>
<path d="M175.608 168.881C174.469 168.881 173.441 168.62 172.523 168.098C171.622 167.56 170.902 166.832 170.364 165.915C169.842 164.997 169.581 163.969 169.581 162.83C169.581 162.482 169.692 162.198 169.913 161.976C170.135 161.739 170.42 161.62 170.768 161.62C171.116 161.62 171.408 161.739 171.645 161.976C171.883 162.198 172.001 162.482 172.001 162.83C172.001 163.511 172.16 164.127 172.476 164.681C172.792 165.235 173.219 165.67 173.757 165.986C174.311 166.302 174.928 166.461 175.608 166.461C176.304 166.461 176.921 166.302 177.459 165.986C178.012 165.67 178.447 165.235 178.764 164.681C179.08 164.127 179.238 163.511 179.238 162.83C179.238 162.134 179.08 161.517 178.764 160.98C178.447 160.426 178.012 159.991 177.459 159.675C176.921 159.358 176.304 159.2 175.608 159.2H171.645C171.297 159.2 171.013 159.089 170.791 158.868C170.57 158.631 170.459 158.338 170.459 157.99V151.584C170.459 151.236 170.57 150.943 170.791 150.706C171.013 150.468 171.297 150.35 171.645 150.35H179.57C179.903 150.35 180.187 150.476 180.425 150.729C180.662 150.967 180.78 151.251 180.78 151.584C180.78 151.9 180.662 152.177 180.425 152.414C180.203 152.651 179.918 152.77 179.57 152.77H172.856V156.78H175.608C176.763 156.78 177.791 157.049 178.692 157.587C179.61 158.109 180.33 158.828 180.852 159.746C181.389 160.647 181.658 161.676 181.658 162.83C181.658 163.969 181.389 164.997 180.852 165.915C180.33 166.832 179.61 167.56 178.692 168.098C177.791 168.62 176.763 168.881 175.608 168.881Z" fill="#CA4B40"/>
<path d="M118 76C118 74.9391 117.579 73.9217 116.828 73.1716C116.078 72.4214 115.061 72 114 72H108C106.409 72 104.883 71.5786 103.757 70.8284C102.632 70.0783 102 69.0609 102 68C102 69.0609 101.368 70.0783 100.243 70.8284C99.1174 71.5786 97.5913 72 96 72H90C88.9391 72 87.9217 72.4214 87.1716 73.1716C86.4214 73.9217 86 74.9391 86 76" stroke="#CA4B40" stroke-width="4" stroke-linecap="round" stroke-linejoin="round"/>
<g opacity="0.15">
<g clip-path="url(#clip0_432_2248)">
<line x1="1072" y1="126.667" x2="-848" y2="126.667" stroke="#D5DAE1" stroke-width="1.33333"/>
<line x1="1072" y1="158.667" x2="-848" y2="158.667" stroke="#D5DAE1" stroke-width="1.33333"/>
<line x1="1072" y1="190.667" x2="-848" y2="190.667" stroke="#D5DAE1" stroke-width="1.33333"/>
<line x1="0.666667" y1="62" x2="0.666625" y2="1022" stroke="#D5DAE1" stroke-width="1.33333"/>
<line x1="32.6667" y1="62" x2="32.6666" y2="1022" stroke="#D5DAE1" stroke-width="1.33333"/>
<line x1="32.6667" y1="62" x2="32.6666" y2="1022" stroke="#D5DAE1" stroke-width="1.33333"/>
<line x1="64.6667" y1="62" x2="64.6666" y2="1022" stroke="#D5DAE1" stroke-width="1.33333"/>
<line x1="96.6667" y1="62" x2="96.6666" y2="1022" stroke="#D5DAE1" stroke-width="1.33333"/>
<line x1="128.667" y1="62" x2="128.667" y2="1022" stroke="#D5DAE1" stroke-width="1.33333"/>
<line x1="160.667" y1="62" x2="160.667" y2="1022" stroke="#D5DAE1" stroke-width="1.33333"/>
<line x1="192.667" y1="62" x2="192.667" y2="1022" stroke="#D5DAE1" stroke-width="1.33333"/>
</g>
</g>
<path d="M76.6335 49C75.9375 49 75.3522 48.7627 74.8776 48.2882C74.4347 47.8136 74.2133 47.2442 74.2133 46.5798C74.2133 45.8838 74.4347 45.3144 74.8776 44.8715L88.3547 29.1165C89.3038 28.0093 90.0315 26.9653 90.5376 25.9845C91.0755 25.0038 91.3444 24.0705 91.3444 23.1847C91.3444 21.7927 91.1071 20.5905 90.6325 19.5782C90.158 18.5658 89.4778 17.7907 88.592 17.2529C87.7062 16.6835 86.6464 16.3987 85.4125 16.3987C84.2104 16.3987 83.1189 16.7151 82.1382 17.3478C81.1891 17.9489 80.4298 18.7715 79.8604 19.8155C79.3225 20.8278 79.0536 21.9509 79.0536 23.1847C79.0536 23.8175 78.8164 24.3711 78.3418 24.8456C77.8989 25.3202 77.3295 25.5575 76.6335 25.5575C75.9691 25.5575 75.3996 25.3202 74.9251 24.8456C74.4505 24.3711 74.2133 23.8175 74.2133 23.1847C74.2133 21.0335 74.7036 19.1195 75.6844 17.4427C76.6651 15.7344 77.9938 14.3898 79.6705 13.4091C81.3789 12.4284 83.2929 11.938 85.4125 11.938C87.5638 11.938 89.4304 12.3967 91.0122 13.3142C92.594 14.2316 93.812 15.5287 94.6662 17.2055C95.552 18.8822 95.9949 20.8753 95.9949 23.1847C95.9949 24.1971 95.7735 25.2253 95.3305 26.2693C94.9193 27.3133 94.3815 28.3098 93.7171 29.2589C93.0844 30.208 92.4358 31.0622 91.7715 31.8215L80.9044 44.1596H94.1916C94.8876 44.1596 95.4729 44.4127 95.9475 44.9189C96.422 45.3935 96.6593 45.9471 96.6593 46.5798C96.6593 47.2442 96.422 47.8136 95.9475 48.2882C95.4729 48.7627 94.8876 49 94.1916 49H76.6335ZM114.165 49C111.887 49 109.831 48.478 107.996 47.434C106.192 46.3584 104.753 44.9031 103.677 43.0682C102.633 41.2333 102.111 39.1769 102.111 36.8991C102.111 36.2031 102.333 35.6336 102.776 35.1907C103.219 34.7162 103.788 34.4789 104.484 34.4789C105.18 34.4789 105.765 34.7162 106.24 35.1907C106.714 35.6336 106.952 36.2031 106.952 36.8991C106.952 38.2595 107.268 39.4933 107.901 40.6005C108.534 41.7078 109.388 42.5778 110.463 43.2105C111.571 43.8433 112.804 44.1596 114.165 44.1596C115.557 44.1596 116.791 43.8433 117.866 43.2105C118.974 42.5778 119.844 41.7078 120.476 40.6005C121.109 39.4933 121.425 38.2595 121.425 36.8991C121.425 35.5071 121.109 34.2733 120.476 33.1976C119.844 32.0904 118.974 31.2204 117.866 30.5876C116.791 29.9549 115.557 29.6385 114.165 29.6385H106.24C105.544 29.6385 104.974 29.4171 104.532 28.9742C104.089 28.4996 103.867 27.9144 103.867 27.2184V14.4056C103.867 13.7096 104.089 13.1244 104.532 12.6498C104.974 12.1753 105.544 11.938 106.24 11.938H122.09C122.754 11.938 123.324 12.1911 123.798 12.6973C124.273 13.1718 124.51 13.7413 124.51 14.4056C124.51 15.0384 124.273 15.592 123.798 16.0665C123.355 16.5411 122.786 16.7784 122.09 16.7784H108.66V24.7982H114.165C116.474 24.7982 118.531 25.336 120.334 26.4116C122.169 27.4556 123.608 28.8951 124.652 30.73C125.728 32.5333 126.266 34.5896 126.266 36.8991C126.266 39.1769 125.728 41.2333 124.652 43.0682C123.608 44.9031 122.169 46.3584 120.334 47.434C118.531 48.478 116.474 49 114.165 49Z" fill="#CA4B40"/>
<path d="M62.3955 106C62.1021 106 61.8555 105.9 61.6555 105.7C61.4555 105.5 61.3555 105.253 61.3555 104.96V91.42C61.3555 91.1133 61.4555 90.8667 61.6555 90.68C61.8555 90.48 62.1021 90.38 62.3955 90.38C62.7021 90.38 62.9488 90.48 63.1355 90.68C63.3355 90.8667 63.4355 91.1133 63.4355 91.42V97.16H72.7155V91.42C72.7155 91.1133 72.8155 90.8667 73.0155 90.68C73.2155 90.48 73.4621 90.38 73.7555 90.38C74.0621 90.38 74.3088 90.48 74.4955 90.68C74.6821 90.8667 74.7755 91.1133 74.7755 91.42V104.96C74.7755 105.253 74.6821 105.5 74.4955 105.7C74.3088 105.9 74.0621 106 73.7555 106C73.4621 106 73.2155 105.9 73.0155 105.7C72.8155 105.5 72.7155 105.253 72.7155 104.96V99H63.4355V104.96C63.4355 105.253 63.3355 105.5 63.1355 105.7C62.9488 105.9 62.7021 106 62.3955 106ZM79.8173 106C79.524 106 79.2773 105.9 79.0773 105.7C78.8773 105.5 78.7773 105.253 78.7773 104.96V91.42C78.7773 91.1133 78.8773 90.8667 79.0773 90.68C79.2773 90.48 79.524 90.38 79.8173 90.38H88.8573C89.164 90.38 89.4107 90.4733 89.5973 90.66C89.784 90.8333 89.8773 91.0667 89.8773 91.36C89.8773 91.64 89.784 91.8667 89.5973 92.04C89.4107 92.2133 89.164 92.3 88.8573 92.3H80.8573V97.16H86.5973C86.904 97.16 87.1507 97.2533 87.3373 97.44C87.524 97.6133 87.6173 97.84 87.6173 98.12C87.6173 98.4 87.524 98.6333 87.3373 98.82C87.1507 98.9933 86.904 99.08 86.5973 99.08H80.8573V104.08H88.8573C89.164 104.08 89.4107 104.167 89.5973 104.34C89.784 104.513 89.8773 104.74 89.8773 105.02C89.8773 105.313 89.784 105.553 89.5973 105.74C89.4107 105.913 89.164 106 88.8573 106H79.8173ZM94.5613 105.36L92.7813 104.5L98.4013 91.08C98.6013 90.6133 98.9279 90.38 99.3813 90.38C99.8613 90.38 100.188 90.6133 100.361 91.08L106.001 104.54L104.341 105.36L99.2613 93.04H99.5413L94.5613 105.36ZM92.3213 109.56C92.0279 109.56 91.7813 109.46 91.5813 109.26C91.3813 109.06 91.2813 108.813 91.2813 108.52V105.2C91.2813 104.893 91.3813 104.647 91.5813 104.46C91.7813 104.26 92.0279 104.16 92.3213 104.16H106.401C106.708 104.16 106.955 104.26 107.141 104.46C107.341 104.647 107.441 104.893 107.441 105.2V108.52C107.441 108.813 107.341 109.06 107.141 109.26C106.955 109.46 106.708 109.56 106.401 109.56C106.108 109.56 105.861 109.46 105.661 109.26C105.461 109.06 105.361 108.813 105.361 108.52V106H93.3613V108.52C93.3613 108.813 93.2613 109.06 93.0613 109.26C92.8746 109.46 92.6279 109.56 92.3213 109.56ZM110.989 106C110.696 106 110.449 105.9 110.249 105.7C110.049 105.5 109.949 105.253 109.949 104.96V91.42C109.949 91.1133 110.049 90.8667 110.249 90.68C110.449 90.48 110.696 90.38 110.989 90.38H120.029C120.336 90.38 120.583 90.4733 120.769 90.66C120.956 90.8333 121.049 91.0667 121.049 91.36C121.049 91.64 120.956 91.8667 120.769 92.04C120.583 92.2133 120.336 92.3 120.029 92.3H112.029V97.16H117.769C118.076 97.16 118.323 97.2533 118.509 97.44C118.696 97.6133 118.789 97.84 118.789 98.12C118.789 98.4 118.696 98.6333 118.509 98.82C118.323 98.9933 118.076 99.08 117.769 99.08H112.029V104.08H120.029C120.336 104.08 120.583 104.167 120.769 104.34C120.956 104.513 121.049 104.74 121.049 105.02C121.049 105.313 120.956 105.553 120.769 105.74C120.583 105.913 120.336 106 120.029 106H110.989ZM123.373 106C123 106 122.713 105.84 122.513 105.52C122.313 105.2 122.293 104.86 122.453 104.5L128.073 91.08C128.273 90.6133 128.6 90.38 129.053 90.38C129.533 90.38 129.86 90.6133 130.033 91.08L135.673 104.54C135.82 104.913 135.8 105.253 135.613 105.56C135.44 105.853 135.16 106 134.773 106C134.573 106 134.38 105.947 134.193 105.84C134.02 105.72 133.893 105.56 133.813 105.36L128.813 93.04H129.453L124.333 105.36C124.24 105.573 124.1 105.733 123.913 105.84C123.74 105.947 123.56 106 123.373 106ZM147.612 106C147.319 106 147.072 105.9 146.872 105.7C146.672 105.5 146.572 105.253 146.572 104.96V99.98H142.792V99.78C141.792 99.78 140.905 99.5933 140.132 99.22C139.372 98.8333 138.772 98.3 138.332 97.62C137.892 96.94 137.672 96.1667 137.672 95.3C137.672 94.34 137.892 93.4933 138.332 92.76C138.772 92.0133 139.372 91.4333 140.132 91.02C140.905 90.5933 141.792 90.38 142.792 90.38H147.612C147.919 90.38 148.165 90.48 148.352 90.68C148.552 90.8667 148.652 91.1133 148.652 91.42V104.96C148.652 105.253 148.552 105.5 148.352 105.7C148.165 105.9 147.919 106 147.612 106ZM138.712 106C138.285 106 137.985 105.833 137.812 105.5C137.639 105.153 137.672 104.787 137.912 104.4L141.192 99.12L143.212 99.7L139.612 105.5C139.505 105.673 139.372 105.8 139.212 105.88C139.065 105.96 138.899 106 138.712 106ZM142.792 98.14H146.572V92.3H142.792C142.192 92.3 141.652 92.4133 141.172 92.64C140.705 92.8667 140.339 93.2067 140.072 93.66C139.805 94.1 139.672 94.6467 139.672 95.3C139.672 95.9133 139.805 96.4333 140.072 96.86C140.339 97.2733 140.705 97.5933 141.172 97.82C141.652 98.0333 142.192 98.14 142.792 98.14Z" fill="black"/>
<defs>
<clipPath id="clip0_432_2248">
<rect y="126" width="224" height="66" rx="21" fill="white"/>
</clipPath>
</defs>
</svg>
