<svg width="92" height="91" viewBox="0 0 92 91" fill="none" xmlns="http://www.w3.org/2000/svg">
<path d="M45.8506 91.0044C70.8552 91.0044 91.1254 70.7341 91.1254 45.7295C91.1254 20.7249 70.8552 0.45459 45.8506 0.45459C20.8459 0.45459 0.575684 20.7249 0.575684 45.7295C0.575684 70.7341 20.8459 91.0044 45.8506 91.0044Z" fill="#FFEAE8"/>
<path d="M31.3655 48.8993L33.5381 56.4253L61.3021 55.9355L61.0588 42.146C60.8663 31.231 53.1524 21.8172 42.2377 22.0097C31.323 22.2023 24.3829 31.4297 24.5754 42.3446L26.161 56.5555L30.6878 56.4756L31.3655 48.8993Z" fill="#2F2E41"/>
<path d="M43.478 54.1626C50.3578 54.1626 55.935 48.5853 55.935 41.7055C55.935 34.8257 50.3578 29.2485 43.478 29.2485C36.5982 29.2485 31.021 34.8257 31.021 41.7055C31.021 48.5853 36.5982 54.1626 43.478 54.1626Z" fill="#FFB6B6"/>
<path d="M57.115 32.9582C57.0985 32.0043 56.7999 31.0767 56.257 30.2923C56.1996 30.2117 56.142 30.1368 56.0844 30.062C55.6228 29.4729 55.0313 28.9985 54.3561 28.6759C53.6809 28.3533 52.9402 28.1912 52.1919 28.2022L43.2386 28.3634L34.2909 28.5189C33.009 28.5445 31.7895 29.0769 30.8993 29.9995C30.009 30.9222 29.5205 32.1599 29.5406 33.4418L31.6712 37.7314L32.8975 40.1958L33.0991 40.0806C40.8432 35.7277 44.01 35.6701 54.2592 39.7179L54.4664 39.7985L55.2783 37.7199L57.1207 33.0042L57.115 32.9582Z" fill="#2F2E41"/>
<path d="M68.2743 61.1316C65.6023 58.4657 56.5626 59.5251 56.5626 59.5251L32.7023 61.028C27.4105 61.4195 22.643 65.6572 20.9158 67.3731C21.1919 67.6437 21.4743 67.9085 21.7625 68.1619C27.0649 72.8746 33.7301 75.7766 40.7924 76.4475C47.8546 77.1183 54.947 75.5231 61.0419 71.893C63.5984 70.3671 66.8695 68.5377 68.9192 66.4016C69.7312 65.5609 70.3809 65.5777 71.1007 64.6564C70.5619 63.2082 69.5708 61.9722 68.2743 61.1316Z" fill="#CA4B40"/>
</svg>
