<svg width="92" height="92" viewBox="0 0 92 92" fill="none" xmlns="http://www.w3.org/2000/svg">
<path d="M46.0361 91.5043C71.0407 91.5043 91.311 71.2341 91.311 46.2295C91.311 21.2248 71.0407 0.95459 46.0361 0.95459C21.0315 0.95459 0.76123 21.2248 0.76123 46.2295C0.76123 71.2341 21.0315 91.5043 46.0361 91.5043Z" fill="#FFEAE8"/>
<path d="M45.2947 52.7236C52.2074 52.7236 57.8113 47.1197 57.8113 40.207C57.8113 33.2943 52.2074 27.6904 45.2947 27.6904C38.3819 27.6904 32.7781 33.2943 32.7781 40.207C32.7781 47.1197 38.3819 52.7236 45.2947 52.7236Z" fill="#FFB8B8"/>
<path d="M33.4534 44.1234C33.4534 44.1234 34.5168 42.2558 34.2696 36.0168C34.0224 29.7778 43.5228 33.3065 51.4615 32.7114C59.4002 32.1162 57.7197 43.1275 57.7197 43.1275C57.7197 43.1275 58.2924 42.473 59.5186 37.1586C60.7448 31.8442 57.9607 26.5482 57.9607 26.5482C57.1407 20.9638 52.7216 22.7536 52.7216 22.7536C54.8498 23.582 54.441 25.3535 54.441 25.3535C52.6396 22.1951 48.2206 23.985 48.2206 23.985C42.3268 20.2865 36.3536 25.1569 36.3536 25.1569C29.2337 26.7728 33.4092 32.435 33.4092 32.435C26.2489 36.0535 33.4534 44.1234 33.4534 44.1234Z" fill="#2F2E41"/>
<path d="M66.1796 69.5831C62.6119 67.703 58.8879 66.1358 55.0494 64.8991L54.5595 59.4848L34.7096 57.3462L32.1869 64.2666L25.0633 66.9399C24.8082 67.0366 24.5655 67.163 24.34 67.3164H24.3323C23.166 67.4152 22.0428 67.8034 21.0644 68.446C20.4008 68.8696 19.8108 69.3986 19.3176 70.0123C20.2814 70.7428 21.2825 71.4205 22.3142 72.0682L22.3597 72.0907C22.6534 72.2714 22.9548 72.4522 23.2556 72.6254C23.7981 72.9492 24.3553 73.2579 24.9126 73.5516L25.2665 73.7323C26.0797 74.154 26.9081 74.5531 27.7591 74.9221C27.9322 74.9974 28.1207 75.0728 28.2939 75.1481C28.3086 75.1556 28.3163 75.1556 28.3311 75.1632C28.7305 75.3288 29.1294 75.4869 29.536 75.6375C30.8718 76.1477 32.2344 76.5851 33.6176 76.9478C37.1476 77.8887 40.7854 78.3646 44.4387 78.3635C45.7718 78.3635 47.0896 78.3033 48.3926 78.1753C51.3692 77.9005 54.3078 77.3073 57.1579 76.4057C57.1649 76.4057 57.1732 76.3981 57.1803 76.3981C58.9808 75.8246 60.7397 75.1276 62.4443 74.3122C62.4514 74.3047 62.4668 74.3047 62.4745 74.2971C62.8586 74.1164 63.2273 73.9206 63.6037 73.7323L63.7845 73.642C64.0859 73.4839 64.3873 73.3257 64.6887 73.1601C65.4415 72.7459 66.1796 72.3091 66.9094 71.8422C67.1127 71.7217 67.3089 71.5937 67.5121 71.4582C67.7982 71.2699 68.0842 71.0741 68.3631 70.8708C67.6628 70.419 66.9325 69.9897 66.1796 69.5831Z" fill="#CA4B40"/>
</svg>
