<svg width="91" height="92" viewBox="0 0 91 92" fill="none" xmlns="http://www.w3.org/2000/svg">
<path d="M45.4072 91.5044C70.4118 91.5044 90.6821 71.2341 90.6821 46.2295C90.6821 21.2249 70.4118 0.95459 45.4072 0.95459C20.4026 0.95459 0.132324 21.2249 0.132324 46.2295C0.132324 71.2341 20.4026 91.5044 45.4072 91.5044Z" fill="#FFEAE8"/>
<path d="M67.412 65.8521C63.8443 63.9721 60.1203 62.4049 56.2818 61.1682L55.792 55.7538L35.942 53.6152L33.4193 60.5357L26.2957 63.209C26.0406 63.3057 25.7979 63.4321 25.5724 63.5855H25.5647C24.3984 63.6843 23.2752 64.0725 22.2968 64.7151C21.6332 65.1387 21.0432 65.6677 20.55 66.2814C21.5138 67.0119 22.5149 67.6896 23.5467 68.3372L23.5922 68.3598C23.8859 68.5405 24.1872 68.7213 24.488 68.8945C25.0305 69.2182 25.5877 69.527 26.145 69.8207L26.499 70.0014C27.3121 70.4232 28.1405 70.8222 28.9915 71.1912C29.1646 71.2665 29.3531 71.3418 29.5263 71.4172C29.541 71.4247 29.5487 71.4247 29.5635 71.4322C29.963 71.5979 30.3618 71.756 30.7684 71.9066C32.1042 72.4168 33.4668 72.8542 34.8499 73.2169C38.38 74.1577 42.0178 74.6337 45.6711 74.6326C47.0042 74.6326 48.322 74.5724 49.625 74.4444C52.6016 74.1696 55.5402 73.5764 58.3903 72.6747C58.3974 72.6747 58.4056 72.6672 58.4127 72.6672C60.2132 72.0937 61.9721 71.3967 63.6767 70.5813C63.6838 70.5738 63.6992 70.5738 63.7069 70.5662C64.091 70.3855 64.4597 70.1897 64.8361 70.0014L65.017 69.911C65.3183 69.753 65.6197 69.5948 65.9211 69.4291C66.6739 69.015 67.412 68.5782 68.1418 68.1113C68.3451 67.9908 68.5413 67.8628 68.7446 67.7273C69.0306 67.539 69.3166 67.3432 69.5955 67.1399C68.8953 66.688 68.1648 66.2588 67.412 65.8521Z" fill="#CA4B40"/>
<path d="M45.0873 50.1916C52.9829 50.1916 59.3835 43.791 59.3835 35.8954C59.3835 27.9998 52.9829 21.5991 45.0873 21.5991C37.1917 21.5991 30.791 27.9998 30.791 35.8954C30.791 43.791 37.1917 50.1916 45.0873 50.1916Z" fill="#A0616A"/>
<path d="M35.4894 28.9319C36.9693 30.6832 39.4738 31.1774 41.7841 31.3801C46.4761 31.7916 53.2988 31.1241 57.8841 30.0654C58.2114 33.2374 57.3191 36.6574 59.1874 39.2667C60.0632 36.1078 60.5724 32.8586 60.7051 29.5833C60.8445 28.178 60.6611 26.7594 60.1686 25.4359C59.9054 24.7726 59.4613 24.1964 58.8869 23.773C58.3125 23.3495 57.6308 23.0956 56.9193 23.0403C57.9844 22.2323 59.232 21.6989 60.552 21.4872L56.0126 19.206L57.1783 18.0092L48.96 17.5063L51.3404 15.9941C47.7578 15.5019 44.1334 15.3875 40.5269 15.6528C38.8522 15.7762 37.1013 16.0119 35.7443 16.9822C34.3874 17.9525 33.6033 19.8811 34.4457 21.3057C33.3911 21.4789 32.3981 21.9185 31.5609 22.5828C30.7237 23.2471 30.0699 24.1141 29.6616 25.1018C29.1452 26.6716 29.0205 28.3439 29.2984 29.973C29.608 32.5868 30.2155 35.1566 31.1089 37.6323L35.4894 28.9319Z" fill="#2F2E41"/>
</svg>
