<svg width="92" height="92" viewBox="0 0 92 92" fill="none" xmlns="http://www.w3.org/2000/svg">
<path d="M46.2217 91.5044C71.2263 91.5044 91.4965 71.2341 91.4965 46.2295C91.4965 21.2249 71.2263 0.95459 46.2217 0.95459C21.217 0.95459 0.946777 21.2249 0.946777 46.2295C0.946777 71.2341 21.217 91.5044 46.2217 91.5044Z" fill="#FFEAE8"/>
<path d="M48.7334 21.7168C52.0718 21.7168 54.7781 19.0105 54.7781 15.6721C54.7781 12.3337 52.0718 9.62744 48.7334 9.62744C45.395 9.62744 42.6887 12.3337 42.6887 15.6721C42.6887 19.0105 45.395 21.7168 48.7334 21.7168Z" fill="#2F2E41"/>
<path d="M43.4889 18.8165C42.7245 18.1021 42.1586 17.2016 41.8465 16.2031C41.5344 15.2045 41.4868 14.1421 41.7083 13.1196C41.9298 12.0971 42.4129 11.1496 43.1103 10.3697C43.8077 9.58987 44.6955 9.00434 45.687 8.67041C44.8565 8.79176 44.0604 9.08479 43.3495 9.5308C42.6385 9.9768 42.0281 10.566 41.5574 11.2609C41.0867 11.9558 40.7659 12.7411 40.6155 13.5668C40.465 14.3925 40.4882 15.2405 40.6836 16.0568C40.8789 16.873 41.2422 17.6396 41.7501 18.3077C42.2581 18.9759 42.8997 19.5308 43.634 19.9373C44.3683 20.3438 45.1793 20.5929 46.0151 20.6686C46.851 20.7444 47.6935 20.6453 48.489 20.3775C47.5917 20.51 46.676 20.4385 45.8102 20.1681C44.9444 19.8978 44.1508 19.4356 43.4884 18.816L43.4889 18.8165Z" fill="#2F2E41"/>
<path d="M48.8552 54.4032C58.662 54.4032 66.6119 46.4532 66.6119 36.6464C66.6119 26.8396 58.662 18.8896 48.8552 18.8896C39.0484 18.8896 31.0984 26.8396 31.0984 36.6464C31.0984 46.4532 39.0484 54.4032 48.8552 54.4032Z" fill="#2F2E41"/>
<path d="M33.0582 26.8698C36.1178 23.4288 40.3946 21.3112 44.9861 20.9637C49.5775 20.6163 54.1242 22.0663 57.6668 25.0077C57.522 24.8694 57.3772 24.7304 57.2274 24.5965C53.7197 21.4541 49.1074 19.8339 44.4051 20.0922C39.7028 20.3505 35.2957 22.4662 32.1533 25.9739C29.011 29.4816 27.3907 34.094 27.6491 38.7963C27.9074 43.4986 30.0231 47.9057 33.5308 51.048C33.5645 51.0782 33.5984 51.1083 33.6323 51.1382C33.7829 51.2722 33.9378 51.3988 34.092 51.527C30.756 48.3533 28.7835 44.0077 28.5907 39.4072C28.3979 34.8068 30 30.3114 33.0589 26.8698H33.0582Z" fill="#2F2E41"/>
<path d="M48.7046 54.2524C55.0207 54.2524 60.1409 49.1322 60.1409 42.8162C60.1409 36.5001 55.0207 31.3799 48.7046 31.3799C42.3885 31.3799 37.2683 36.5001 37.2683 42.8162C37.2683 49.1322 42.3885 54.2524 48.7046 54.2524Z" fill="#A0616A"/>
<path d="M69.1695 72.6136V76.4509C68.467 76.8997 67.7575 77.3197 67.0335 77.7179C66.744 77.8771 66.4545 78.0292 66.165 78.1812L65.991 78.2681C65.629 78.4491 65.2741 78.6373 64.905 78.8111C64.898 78.8183 64.8831 78.8183 64.8761 78.8255C63.2372 79.6095 61.5462 80.2796 59.8151 80.831C59.8081 80.831 59.801 80.8383 59.7936 80.8383C57.0534 81.7051 54.228 82.2755 51.3661 82.5397C50.1136 82.6628 48.8466 82.7207 47.5652 82.7207C44.0528 82.7217 40.5554 82.2641 37.1616 81.3595C35.4302 80.9044 33.7321 80.3311 32.0791 79.6437C32.0646 79.6365 32.0572 79.6365 32.0427 79.6292C31.8762 79.5568 31.6952 79.4844 31.5287 79.412C30.7106 79.0572 29.9142 78.6735 29.1322 78.2681L28.7921 78.0944C27.9592 77.6527 27.1412 77.1894 26.3377 76.6898L26.2942 76.668C25.0567 75.897 23.8628 75.0583 22.7177 74.1558C22.1312 73.7069 21.5666 73.2363 21.0162 72.744C20.7267 72.4978 20.4371 72.2372 20.1621 71.9838C19.1043 71.0069 18.1012 69.9724 17.1572 68.8851C17.2824 68.1309 17.4664 67.3878 17.7076 66.6624L17.7147 66.6551C17.758 66.5315 17.8088 66.4106 17.8667 66.2931C17.9067 66.1892 17.9526 66.0877 18.0043 65.9891C19.3002 63.5637 21.6461 62.9628 24.5566 62.8325C26.2001 62.76 28.0172 62.8397 29.9361 62.818C30.9496 62.8107 31.9992 62.7745 33.0491 62.6804C39.6736 62.0795 38.472 58.1699 38.7686 56.063C39.0656 54.0214 40.9046 55.788 41.0276 55.9038L41.0347 55.911C44.7835 57.6654 48.9311 58.3925 53.0531 58.0179C53.7626 57.931 54.4721 57.8803 55.1817 57.8586C57.0496 57.8369 56.6441 58.3726 56 58.8143C55.6873 59.0201 55.3607 59.2039 55.0226 59.3645C55.0226 59.3645 54.7256 61.1745 54.4216 63.8823C54.1321 66.4741 63.2616 67.3719 65.05 67.9366H65.0571C66.0779 68.312 66.9887 68.9365 67.7069 69.7532C68.425 70.57 68.9278 71.5532 69.1695 72.6136Z" fill="#CA4B40"/>
<path d="M37.1174 42.064C37.616 42.064 38.0202 41.323 38.0202 40.409C38.0202 39.4949 37.616 38.7539 37.1174 38.7539C36.6188 38.7539 36.2146 39.4949 36.2146 40.409C36.2146 41.323 36.6188 42.064 37.1174 42.064Z" fill="#A0616A"/>
<path d="M60.2915 42.064C60.7901 42.064 61.1943 41.323 61.1943 40.409C61.1943 39.4949 60.7901 38.7539 60.2915 38.7539C59.7929 38.7539 59.3887 39.4949 59.3887 40.409C59.3887 41.323 59.7929 42.064 60.2915 42.064Z" fill="#A0616A"/>
<path d="M61.06 34.0644C60.6206 32.6573 59.6411 31.4818 58.3363 30.7959C57.0416 30.124 55.6587 29.6378 54.2283 29.3517C51.7279 28.6323 49.1366 28.2776 46.5348 28.2987C43.9401 28.4262 41.2876 29.3218 39.5248 31.23C37.762 33.1383 37.1085 36.1679 38.3925 38.4262L38.2505 39.0099C40.3088 39.2547 42.394 38.8975 44.2535 37.9816C46.113 37.0658 47.6671 35.6304 48.7276 33.8494C49.7008 35.3863 51.083 36.6215 52.7192 37.4165C54.3554 38.2115 56.1808 38.5347 57.9904 38.3499C58.568 38.3033 59.1304 38.1416 59.6445 37.8741C60.2543 37.4716 60.7202 36.8855 60.9746 36.2005C61.2291 35.5156 61.259 34.7675 61.06 34.0644Z" fill="#2F2E41"/>
</svg>
