<svg width="83" height="268" viewBox="0 0 83 268" fill="none" xmlns="http://www.w3.org/2000/svg">
<path d="M19.8017 167.67L17.1034 165.441L19.8017 167.67ZM64.2587 113.854L61.5603 111.625L64.2587 113.854ZM64.859 77.6666L62.0882 79.8049L64.859 77.6666ZM8.45484 0.528671C6.53769 0.281678 4.7833 1.63561 4.5363 3.55277L0.511292 34.7945C0.264298 36.7117 1.61823 38.4661 3.53538 38.7131C5.45253 38.9601 7.20692 37.6061 7.45391 35.689L11.0317 7.91852L38.8022 11.4963C40.7193 11.7433 42.4737 10.3894 42.7207 8.47222C42.9677 6.55507 41.6138 4.80069 39.6966 4.55367L8.45484 0.528671ZM21.6535 206.646L24.1284 204.171L21.6535 206.646ZM76.5327 266.475C77.8996 267.842 80.1156 267.842 81.4825 266.475C82.8493 265.108 82.8493 262.892 81.4825 261.525L76.5327 266.475ZM22.5001 169.899L66.9571 116.083L61.5603 111.625L17.1034 165.441L22.5001 169.899ZM67.6299 75.5282L10.7784 1.86163L5.23679 6.13833L62.0882 79.8049L67.6299 75.5282ZM19.1787 209.121L76.5327 266.475L81.4825 261.525L24.1284 204.171L19.1787 209.121ZM66.9571 116.083C76.6243 104.381 76.9036 87.5449 67.6299 75.5282L62.0882 79.8049C69.3645 89.2334 69.1454 102.443 61.5603 111.625L66.9571 116.083ZM17.1034 165.441C6.43202 178.359 7.33064 197.273 19.1787 209.121L24.1284 204.171C14.8323 194.875 14.1272 180.035 22.5001 169.899L17.1034 165.441Z" fill="#641E1A"/>
</svg>
