<svg width="83" height="268" viewBox="0 0 83 268" fill="none" xmlns="http://www.w3.org/2000/svg">
<path d="M63.1982 100.33L65.8966 102.559L63.1982 100.33ZM18.7413 154.146L21.4396 156.375L18.7413 154.146ZM18.1409 190.333L20.9118 188.195L18.1409 190.333ZM74.5451 267.471C76.4623 267.718 78.2167 266.364 78.4637 264.447L82.4887 233.205C82.7357 231.288 81.3817 229.534 79.4646 229.287C77.5474 229.04 75.7931 230.394 75.5461 232.311L71.9683 260.081L44.1978 256.504C42.2806 256.257 40.5263 257.611 40.2793 259.528C40.0323 261.445 41.3862 263.199 43.3033 263.446L74.5451 267.471ZM61.3464 61.3541L58.8716 63.829L61.3464 61.3541ZM6.46723 1.52517C5.1004 0.158331 2.88432 0.158331 1.51748 1.52517C0.150648 2.892 0.150646 5.10808 1.51749 6.47491L6.46723 1.52517ZM60.4999 98.1007L16.0429 151.917L21.4396 156.375L65.8966 102.559L60.4999 98.1007ZM15.3701 192.472L72.2215 266.138L77.7632 261.862L20.9118 188.195L15.3701 192.472ZM63.8213 58.8792L6.46723 1.52517L1.51749 6.47491L58.8716 63.829L63.8213 58.8792ZM16.0429 151.917C6.37567 163.619 6.09637 180.455 15.3701 192.472L20.9118 188.195C13.6354 178.767 13.8546 165.557 21.4396 156.375L16.0429 151.917ZM65.8966 102.559C76.5679 89.6409 75.6693 70.7273 63.8213 58.8792L58.8716 63.829C68.1677 73.1251 68.8728 87.9651 60.4999 98.1007L65.8966 102.559Z" fill="#641E1A"/>
</svg>
