<svg width="82" height="81" viewBox="0 0 82 81" fill="none" xmlns="http://www.w3.org/2000/svg">
<rect x="0.958984" width="80.082" height="80.082" rx="22.245" fill="#FFEAE8"/>
<g clip-path="url(#clip0_318_815)">
<path d="M37.9767 28.7988L31.4958 17.9979C31.2293 17.5536 30.8523 17.1859 30.4015 16.9306C29.9507 16.6753 29.4414 16.541 28.9233 16.541H18.503C17.2889 16.541 16.5783 17.907 17.2739 18.9016L27.7055 33.8041C30.4917 31.2007 34.0355 29.4138 37.9767 28.7988ZM63.4974 16.541H53.077C52.0233 16.541 51.0464 17.0941 50.5045 17.9979L44.0236 28.7988C47.9649 29.4138 51.5086 31.2007 54.2949 33.8032L64.7264 18.9016C65.422 17.907 64.7114 16.541 63.4974 16.541ZM41.0002 31.541C31.8877 31.541 24.5002 38.9285 24.5002 48.041C24.5002 57.1535 31.8877 64.541 41.0002 64.541C50.1127 64.541 57.5002 57.1535 57.5002 48.041C57.5002 38.9285 50.1127 31.541 41.0002 31.541ZM49.6739 46.2841L46.118 49.7491L46.9589 54.6448C47.1089 55.5223 46.1845 56.1926 45.398 55.7782L41.0002 53.4673L36.6033 55.7782C35.8158 56.1954 34.8924 55.5213 35.0424 54.6448L35.8833 49.7491L32.3274 46.2841C31.688 45.6616 32.0414 44.5751 32.9227 44.4476L37.838 43.7313L40.0345 39.2763C40.2324 38.8751 40.6149 38.6773 40.9983 38.6773C41.3836 38.6773 41.7689 38.8779 41.9667 39.2763L44.1633 43.7313L49.0786 44.4476C49.9599 44.5751 50.3133 45.6616 49.6739 46.2841Z" fill="#CA4B40"/>
</g>
<defs>
<clipPath id="clip0_318_815">
<rect width="48" height="48" fill="white" transform="translate(17 16.541)"/>
</clipPath>
</defs>
</svg>
